<svg xmlns="http://www.w3.org/2000/svg" width="220" height="220" viewBox="0 0 220 220">
  <defs>
    <radialGradient id="core" cx="50%" cy="50%" r="50%">
      <stop offset="0" stop-color="#ffc066" stop-opacity=".8"/>
      <stop offset=".42" stop-color="#38bdb0" stop-opacity=".22"/>
      <stop offset="1" stop-color="#101412" stop-opacity="0"/>
    </radialGradient>
    <linearGradient id="rim" x1="0" x2="1" y1="0" y2="1">
      <stop offset="0" stop-color="#f4f0e8" stop-opacity=".24"/>
      <stop offset=".5" stop-color="#ffc066" stop-opacity=".58"/>
      <stop offset="1" stop-color="#38bdb0" stop-opacity=".32"/>
    </linearGradient>
  </defs>
  <rect width="220" height="220" fill="none"/>
  <circle cx="110" cy="110" r="95" fill="url(#core)"/>
  <g fill="none" stroke-linecap="round" stroke-linejoin="round">
    <circle cx="110" cy="110" r="79" stroke="url(#rim)" stroke-width="3"/>
    <circle cx="110" cy="110" r="52" stroke="#38bdb0" stroke-opacity=".38" stroke-width="2"/>
    <path d="M110 20v34M110 166v34M20 110h34M166 110h34" stroke="#ffc066" stroke-opacity=".72" stroke-width="3"/>
    <path d="M55 55l24 24M141 141l24 24M165 55l-24 24M79 141l-24 24" stroke="#f4f0e8" stroke-opacity=".22" stroke-width="2"/>
    <path d="M110 61l15 34 34 15-34 15-15 34-15-34-34-15 34-15 15-34z" stroke="#ffc066" stroke-opacity=".78" stroke-width="3"/>
    <path d="M110 84l9 18 18 8-18 8-9 18-9-18-18-8 18-8 9-18z" stroke="#38bdb0" stroke-opacity=".82" stroke-width="2"/>
    <path d="M77 30c27 16 40 16 66 0M77 190c27-16 40-16 66 0" stroke="#f4f0e8" stroke-opacity=".18" stroke-width="2"/>
  </g>
</svg>
